inDegrees=yes
name=ik_S40_A11_T01
DataType=double
version=3
OpenSimVersion=4.3-2021-08-27-4bc7ad9
endheader
time	pelvis_tilt	pelvis_list	pelvis_rotation	pelvis_tx	pelvis_ty	pelvis_tz	hip_flexion_r	hip_adduction_r	hip_rotation_r	knee_angle_r	knee_angle_r_beta	ankle_angle_r	subtalar_angle_r	mtp_angle_r	hip_flexion_l	hip_adduction_l	hip_rotation_l	knee_angle_l	knee_angle_l_beta	ankle_angle_l	subtalar_angle_l	mtp_angle_l	lumbar_extension	lumbar_bending	lumbar_rotation	arm_flex_r	arm_add_r	arm_rot_r	elbow_flex_r	pro_sup_r	wrist_flex_r	wrist_dev_r	arm_flex_l	arm_add_l	arm_rot_l	elbow_flex_l	pro_sup_l	wrist_flex_l	wrist_dev_l
7.739999999999923	4.055282501635442	-4.553207573320709	30.63900419846266	0	0.9399999999999999	0	37.37081960113137	-9.852620176444441	-9.542448249419982	44.01565153858895	0.7682180417588852	0	0	0	37.37081960113137	-9.852620176444441	-9.542448249419982	44.01565153858895	0.7682180417588852	0	0	0	2.151867032250954	-5.47331417314962	7.493027589975299	110.5897093361008	-16.52529338959688	67.09080078118923	10.57396741031499	46.25865509849487	0	0	0.7777631811949424	-10.43465299410509	-1.939679014360942	3.527309958417511	87.18483865294161	0	0
7.759999999999923	4.056745840897937	-4.52760524174054	30.52704330841824	0	0.9399999999999999	0	37.37244009488278	-9.852728452584715	-9.542663844730797	44.01724231879489	0.7682458061111543	0	0	0	37.37244009488278	-9.852728452584715	-9.542663844730797	44.01724231879489	0.7682458061111543	0	0	0	2.162342362019886	-5.45196251989795	7.436699772998068	110.5325810697875	-16.47153302813194	67.02939012831811	10.65958311061214	46.31171056880348	0	0	0.717093084069369	-10.42627902272203	-1.966154255278532	3.525084428245532	87.1707844462611	0	0
7.779999999999922	4.052928921796679	-4.507771871857739	30.44594002830918	0	0.9399999999999999	0	37.37466078803329	-9.852877029038037	-9.542959581766693	44.0194184499857	0.7682837867653893	0	0	0	37.37466078803329	-9.852877029038037	-9.542959581766693	44.0194184499857	0.7682837867653893	0	0	0	2.166472607585509	-5.432967387825807	7.398373322305623	110.5219866567036	-16.47408098451915	67.03710647474453	10.77953418723067	46.32398548553743	0	0	0.6954611121314146	-10.40763348521571	-1.956511269555191	3.517075999538037	87.11468199091607	0	0
7.799999999999922	4.055456611933916	-4.494359599853988	30.37028101122127	0	0.9399999999999999	0	37.37516117441227	-9.852909949338033	-9.543025493241565	44.01991630464126	0.7682924759683252	0	0	0	37.37516117441227	-9.852909949338033	-9.543025493241565	44.01991630464126	0.7682924759683252	0	0	0	2.173726915984502	-5.42266733923617	7.372391247082801	110.5125061365409	-16.37650898414811	67.02698909247192	10.78078237017118	46.3397502269455	0	0	0.6849742739811586	-10.43081738398083	-1.854043675980316	3.50907837623149	87.10186274607358	0	0
7.819999999999921	4.059583705198664	-4.483781238522044	30.32174542662337	0	0.9399999999999999	0	37.37604329271072	-9.852968654009876	-9.543142569126864	44.02078458993257	0.7683076304055052	0	0	0	37.37604329271072	-9.852968654009876	-9.543142569126864	44.02078458993257	0.7683076304055052	0	0	0	2.181744491451378	-5.415653633394537	7.358750927184284	110.5395967645245	-16.45554828921435	67.04825945608773	10.77714603545137	46.35562004197941	0	0	0.649669297129114	-10.42735103576538	-1.843497188892802	3.48213181135392	87.16061335669389	0	0
7.839999999999921	4.059846336293575	-4.468779063416107	30.26294638979616	0	0.9399999999999999	0	37.37718253592121	-9.853044444639222	-9.543293746006439	44.02190600868627	0.768327202855051	0	0	0	37.37718253592121	-9.853044444639222	-9.543293746006439	44.02190600868627	0.768327202855051	0	0	0	2.187843336239697	-5.402866212579434	7.333379682881301	110.5427361789677	-16.4865747469478	67.07767648233958	10.80080897622924	46.33721642825419	0	0	0.6352168261123043	-10.4070226409652	-1.924489642947957	3.462474977866433	87.24620041304181	0	0
7.85999999999992	4.061625249219572	-4.464112536630393	30.20445665727776	0	0.9399999999999999	0	37.3772874407337	-9.85305099177914	-9.543307099226803	44.02201527717457	0.7683291099499403	0	0	0	37.3772874407337	-9.85305099177914	-9.543307099226803	44.02201527717457	0.7683291099499403	0	0	0	2.189980006958706	-5.399711902283641	7.30727875866079	110.5408632939838	-16.49298436870939	67.08454912684698	10.79937613281288	46.34314800456006	0	2.196772991983617e-35	0.631557711801243	-10.40439103864655	-1.918551321137581	3.458984398866938	87.25160118784322	0	2.196772991983617e-35
7.87999999999992	4.061392746160633	-4.444851062554944	30.13487590515739	0	0.9399999999999999	0	37.39096762903841	-9.8535985654988	-9.544715116199573	44.03632118111926	0.7685787950762494	0	0	0	37.39096762903841	-9.8535985654988	-9.544715116199573	44.03632118111926	0.7685787950762494	0	0	0	2.196533621074052	-5.383459768240805	7.272520869763985	110.5178596514263	-16.38284558346628	67.0748087463368	10.75608105561503	46.46640305619283	0	0	0.6176804642213144	-10.36068762472817	-2.014978652296144	3.35350756541396	87.31365091891327	0	0
7.89999999999992	4.066526863523023	-4.442094729774121	30.04059825999487	0	0.9399999999999999	0	37.39206427401108	-9.85367148510583	-9.544860599263309	44.03739944972866	0.7685976144137042	0	0	0	37.39206427401108	-9.85367148510583	-9.544860599263309	44.03739944972866	0.7685976144137042	0	0	0	2.199882324605301	-5.383678268114376	7.236197216068732	110.5320352786367	-16.39724984015136	67.0910931006523	10.77144974384464	46.49880499005202	0	0	0.5615095168245452	-10.34433170411544	-1.934091725637172	3.38557186672301	87.27284986932561	0	0
7.919999999999919	4.066803132852773	-4.439974750305237	30.02827734603882	0	0.9399999999999999	0	37.39362705510327	-9.853775554521592	-9.545068141782323	44.03893325930693	0.7686243844409436	0	0	0	37.39362705510327	-9.853775554521592	-9.545068141782323	44.03893325930693	0.7686243844409436	0	0	0	2.202030507018331	-5.382058962308261	7.249501276087498	110.489631842902	-16.46952980468204	67.1694594720401	10.75862447499336	46.49836146149583	0	0	0.5634971778655564	-10.31329559511175	-1.809749921128346	3.409908010582931	87.23776528926381	0	0
7.939999999999919	4.068498961961992	-4.44483274009899	29.97881940381957	0	0.9399999999999999	0	37.39373326827712	-9.85378216402434	-9.54508163761221	44.03904396295069	0.7686263165840211	0	0	0	37.39373326827712	-9.85378216402434	-9.54508163761221	44.03904396295069	0.7686263165840211	0	0	0	2.199610256000633	-5.387107977059364	7.228378776961486	110.4776955080926	-16.47593100268715	67.1742051356085	10.75991157990937	46.49799188201533	0	0	0.5688160145550012	-10.31499040176334	-1.802469820475657	3.411110782932491	87.23298266961363	0	0
